# xmcd CD database file
#
# Track frame offsets:
#	150
#	17655
#	35577
#	56530
#	72097
#	96505
#	116695
#	136752
#	154445
#	176977
#	188607
#
# Disc length: 2814 seconds
#
# Revision: 0
# Processed by: cddbd v1.5.1PL2 Copyright (c) Steve Scherf et al.
# Submitted via: CDex 1.51
#
DISCID=980afc0b
DTITLE=Katey and Kacey Coppola - Circle Around
DYEAR=2006
DGENRE=Country
TTITLE0=What I Can Do For You
TTITLE1=Another Fool
TTITLE2=Half
TTITLE3=Undeniable
TTITLE4=Circle Around
TTITLE5=Break
TTITLE6=Understated View
TTITLE7=Solid Ground
TTITLE8=Love Is All
TTITLE9=Innocence Lost
TTITLE10=Light
EXTD=YEAR: 2006
EXTT0=
EXTT1=
EXTT2=
EXTT3=
EXTT4=
EXTT5=
EXTT6=
EXTT7=
EXTT8=
EXTT9=
EXTT10=
PLAYORDER=
